<svg xmlns="http://www.w3.org/2000/svg" width="430" height="430" fill="none" viewBox="0 0 430 430"><path fill="#f24c00" d="M375 75v280c0 11.038-8.962 20-20 20H75c-11.038 0-20-8.962-20-20V75c0-11.038 8.962-20 20-20h280c11.038 0 20 8.962 20 20"/><path fill="#f24c00" d="M375 75v280c0 11.038-8.962 20-20 20H75c-11.038 0-20-8.962-20-20V75c0-11.038 8.962-20 20-20h280c11.038 0 20 8.962 20 20"/><path fill="#f24c00" d="M75 55c-11.046 0-20 8.954-20 20v280c0 11.046 8.954 20 20 20h45c-11.046 0-20-8.954-20-20V75c0-11.046 8.954-20 20-20z" opacity=".5" style="mix-blend-mode:multiply"/><path fill="#ebe6ef" d="M294.05 202.924c-15.902-2.176-134.037-.47-155.65.125-7.338.202-21.9 9.952-21.99 21.583-.167 21.581.59 48.619.598 69.062.005 14.432 19.934 19.841 22.042 19.884 20.7.423 134.95 2.173 155.15-.25 6.313-.757 18.338-10.392 19.258-19.834.292-2.992.413-66.41.051-68.996-1.259-8.996-9.759-20.247-19.459-21.574"/><path fill="#ebe6ef" d="M138.15 203.047c10.288-.048 34.912.014 88.512-1.061-45.225 1.7-86.162-.237-86.012 20.436.11 15.236-1.184 48.379.4 68.904 1.325 17.173 45.83 22.798 85.451 23.311-51.626-1.013-66.822.677-87.701-1.061-2.425-.202-21.8-5.202-22.015-21.06-.275-20.295-.11-45.514-.395-68.136-.14-11.131 14.479-21.299 21.76-21.333" opacity=".5" style="mix-blend-mode:multiply"/><path stroke="#121331" stroke-linecap="round" stroke-linejoin="round" stroke-width="7" d="M178.16 178.161v-27.63m0 0 15.35-42.98m-15.35 42.98-15.35-42.98m79.82 21.488v42.98a6.14 6.14 0 0 0 6.14 6.14h9.21a6.14 6.14 0 0 0 6.14-6.14v-42.98m-50.908 0h-4.352a6.14 6.14 0 0 0-6.14 6.14v36.84a6.14 6.14 0 0 0 6.14 6.14h9.21a6.14 6.14 0 0 0 6.14-6.14v-36.84a6.14 6.14 0 0 0-6.14-6.14z"/><path stroke="#121331" stroke-linecap="round" stroke-width="7" d="M159.74 224.211v64.47m0-64.47h12.28m-12.28 0h-12.28m33.77 15.35v42.98a6.14 6.14 0 0 0 6.14 6.14h9.21a6.14 6.14 0 0 0 6.14-6.14v-42.98m18.42.614h16.271a6.14 6.14 0 0 1 6.14 6.14v36.226c0 1.628-.647 3.19-1.798 4.342a6.14 6.14 0 0 1-4.342 1.798H227.28a6.14 6.14 0 0 1-4.342-1.798 6.14 6.14 0 0 1-1.798-4.342zm0 0v-15.964"/><path stroke="#121331" stroke-linecap="round" stroke-linejoin="round" stroke-width="7" d="M282.54 279.471v3.07a6.14 6.14 0 0 1-6.14 6.14h-9.21a6.14 6.14 0 0 1-6.14-6.14v-18.42m0 0v-18.42a6.14 6.14 0 0 1 6.14-6.14h9.21a6.14 6.14 0 0 1 6.14 6.14v18.42z"/><path stroke="#121331" stroke-linejoin="round" stroke-width="7" d="M141.32 202.721c-13.564 0-24.56 10.996-24.56 24.56v61.4c0 13.564 10.996 24.56 24.56 24.56h147.36c13.564 0 24.56-10.996 24.56-24.56v-61.4c0-13.564-10.996-24.56-24.56-24.56z"/><path stroke="#121331" stroke-linejoin="round" stroke-width="7" d="M375 75v280c0 11.038-8.962 20-20 20H75c-11.038 0-20-8.962-20-20V75c0-11.038 8.962-20 20-20h280c11.038 0 20 8.962 20 20Z"/></svg>