<svg xmlns="http://www.w3.org/2000/svg" width="430" height="430" fill="none" viewBox="0 0 430 430"><rect width="320" height="320" x="55" y="55" fill="#3a3347" rx="20"/><path fill="#3a3347" d="M75 55c-11.046 0-20 8.954-20 20v280c0 11.046 8.954 20 20 20h45c-11.046 0-20-8.954-20-20V75c0-11.046 8.954-20 20-20z" opacity=".5" style="mix-blend-mode:multiply"/><path fill="#ebe6ef" d="M260 104.5c0 26.234 21.266 47.5 47.5 47.5v45c-17.367 0-33.616-4.786-47.5-13.111V263.5h-.007c-.535 36.818-30.548 66.5-67.493 66.5-37.279 0-67.5-30.221-67.5-67.5 0-36.442 28.879-66.139 65-67.455v45.092c-11.25 1.244-20 10.782-20 22.363 0 12.426 10.074 22.5 22.5 22.5 12.1 0 21.969-9.551 22.479-21.525H215V105h.001l-.001-.5z"/><path fill="#ebe6ef" d="M192.5 330c4.271 0 8.449-.397 12.5-1.155-31.307-5.862-55-33.337-55-66.345 0-27.485 16.428-51.134 40-61.663v-5.792c-36.121 1.316-65 31.013-65 67.455 0 37.279 30.221 67.5 67.5 67.5m12.5-48.789A22.4 22.4 0 0 0 217.5 285c12.1 0 21.969-9.551 22.479-21.525H240V105h.001l-.001-.5h-25l.001.5H215v158.475h-.021c-.315 7.396-4.201 13.869-9.979 17.736" opacity=".5" style="mix-blend-mode:multiply"/><path stroke="#121331" stroke-linejoin="round" stroke-width="10.5" d="M260 104.5c0 26.234 21.266 47.5 47.5 47.5v45c-17.367 0-33.616-4.786-47.5-13.111V263.5h-.007c-.535 36.818-30.548 66.5-67.493 66.5-37.279 0-67.5-30.221-67.5-67.5 0-36.442 28.879-66.139 65-67.455v45.092c-11.25 1.244-20 10.782-20 22.363 0 12.426 10.074 22.5 22.5 22.5 12.1 0 21.969-9.551 22.479-21.525H215V105h.001l-.001-.5z"/><rect width="320" height="320" x="55" y="55" stroke="#121331" stroke-linejoin="round" stroke-width="10.5" rx="20"/></svg>